<mxfile host="app.diagrams.net" modified="2024-05-03T03:31:13.859Z" agent="Mozilla/5.0 (Windows NT 10.0; Win64; x64) AppleWebKit/537.36 (KHTML, like Gecko) Chrome/124.0.0.0 Safari/537.36 Edg/124.0.0.0" etag="0ln1p8fkVWCfRcOe1a35" version="24.3.1" type="google">
  <diagram name="PÃ¡gina-1" id="CQeNwARwq5D79U2T7R5i">
    <mxGraphModel grid="1" page="1" gridSize="10" guides="1" tooltips="1" connect="1" arrows="1" fold="1" pageScale="1" pageWidth="827" pageHeight="1169" math="0" shadow="0">
      <root>
        <mxCell id="0" />
        <mxCell id="1" parent="0" />
        <mxCell id="kbTU3mEWm_k-nUe5y33P-3" value="" style="edgeStyle=orthogonalEdgeStyle;rounded=0;orthogonalLoop=1;jettySize=auto;html=1;" edge="1" parent="1" source="kbTU3mEWm_k-nUe5y33P-1" target="kbTU3mEWm_k-nUe5y33P-2">
          <mxGeometry relative="1" as="geometry" />
        </mxCell>
        <mxCell id="kbTU3mEWm_k-nUe5y33P-1" value="INICIO" style="ellipse;whiteSpace=wrap;html=1;" vertex="1" parent="1">
          <mxGeometry x="230" y="40" width="80" height="80" as="geometry" />
        </mxCell>
        <mxCell id="kbTU3mEWm_k-nUe5y33P-5" value="" style="edgeStyle=orthogonalEdgeStyle;rounded=0;orthogonalLoop=1;jettySize=auto;html=1;" edge="1" parent="1" source="kbTU3mEWm_k-nUe5y33P-2" target="kbTU3mEWm_k-nUe5y33P-4">
          <mxGeometry relative="1" as="geometry" />
        </mxCell>
        <mxCell id="kbTU3mEWm_k-nUe5y33P-2" value="INPUT&lt;div&gt;n, k&lt;/div&gt;" style="shape=parallelogram;perimeter=parallelogramPerimeter;whiteSpace=wrap;html=1;fixedSize=1;" vertex="1" parent="1">
          <mxGeometry x="210" y="160" width="120" height="60" as="geometry" />
        </mxCell>
        <mxCell id="kbTU3mEWm_k-nUe5y33P-7" value="" style="edgeStyle=orthogonalEdgeStyle;rounded=0;orthogonalLoop=1;jettySize=auto;html=1;" edge="1" parent="1" source="kbTU3mEWm_k-nUe5y33P-4" target="kbTU3mEWm_k-nUe5y33P-6">
          <mxGeometry relative="1" as="geometry" />
        </mxCell>
        <mxCell id="kbTU3mEWm_k-nUe5y33P-4" value="&lt;div&gt;&lt;span style=&quot;background-color: initial;&quot;&gt;espacio1&lt;/span&gt;&lt;br&gt;&lt;/div&gt;&lt;div&gt;_i&lt;/div&gt;&lt;div&gt;&lt;br&gt;&lt;/div&gt;&lt;div&gt;i=0&lt;/div&gt;&lt;div&gt;r=0&lt;/div&gt;" style="whiteSpace=wrap;html=1;" vertex="1" parent="1">
          <mxGeometry x="210" y="240" width="120" height="90" as="geometry" />
        </mxCell>
        <mxCell id="kbTU3mEWm_k-nUe5y33P-9" value="" style="edgeStyle=orthogonalEdgeStyle;rounded=0;orthogonalLoop=1;jettySize=auto;html=1;" edge="1" parent="1" source="kbTU3mEWm_k-nUe5y33P-6" target="kbTU3mEWm_k-nUe5y33P-8">
          <mxGeometry relative="1" as="geometry" />
        </mxCell>
        <mxCell id="kbTU3mEWm_k-nUe5y33P-38" value="" style="edgeStyle=orthogonalEdgeStyle;rounded=0;orthogonalLoop=1;jettySize=auto;html=1;" edge="1" parent="1" source="kbTU3mEWm_k-nUe5y33P-6" target="kbTU3mEWm_k-nUe5y33P-37">
          <mxGeometry relative="1" as="geometry" />
        </mxCell>
        <mxCell id="kbTU3mEWm_k-nUe5y33P-6" value="n==1" style="rhombus;whiteSpace=wrap;html=1;" vertex="1" parent="1">
          <mxGeometry x="230" y="370" width="80" height="80" as="geometry" />
        </mxCell>
        <mxCell id="kbTU3mEWm_k-nUe5y33P-11" value="" style="edgeStyle=orthogonalEdgeStyle;rounded=0;orthogonalLoop=1;jettySize=auto;html=1;" edge="1" parent="1" source="kbTU3mEWm_k-nUe5y33P-8" target="kbTU3mEWm_k-nUe5y33P-10">
          <mxGeometry relative="1" as="geometry" />
        </mxCell>
        <mxCell id="kbTU3mEWm_k-nUe5y33P-40" value="" style="edgeStyle=orthogonalEdgeStyle;rounded=0;orthogonalLoop=1;jettySize=auto;html=1;" edge="1" parent="1" source="kbTU3mEWm_k-nUe5y33P-8" target="kbTU3mEWm_k-nUe5y33P-39">
          <mxGeometry relative="1" as="geometry" />
        </mxCell>
        <mxCell id="kbTU3mEWm_k-nUe5y33P-8" value="n==2" style="rhombus;whiteSpace=wrap;html=1;" vertex="1" parent="1">
          <mxGeometry x="230" y="480" width="80" height="80" as="geometry" />
        </mxCell>
        <mxCell id="kbTU3mEWm_k-nUe5y33P-13" value="" style="edgeStyle=orthogonalEdgeStyle;rounded=0;orthogonalLoop=1;jettySize=auto;html=1;" edge="1" parent="1" source="kbTU3mEWm_k-nUe5y33P-10" target="kbTU3mEWm_k-nUe5y33P-12">
          <mxGeometry relative="1" as="geometry" />
        </mxCell>
        <mxCell id="kbTU3mEWm_k-nUe5y33P-43" value="" style="edgeStyle=orthogonalEdgeStyle;rounded=0;orthogonalLoop=1;jettySize=auto;html=1;" edge="1" parent="1" source="kbTU3mEWm_k-nUe5y33P-10" target="kbTU3mEWm_k-nUe5y33P-42">
          <mxGeometry relative="1" as="geometry" />
        </mxCell>
        <mxCell id="kbTU3mEWm_k-nUe5y33P-10" value="n==3" style="rhombus;whiteSpace=wrap;html=1;" vertex="1" parent="1">
          <mxGeometry x="230" y="600" width="80" height="80" as="geometry" />
        </mxCell>
        <mxCell id="kbTU3mEWm_k-nUe5y33P-15" value="" style="edgeStyle=orthogonalEdgeStyle;rounded=0;orthogonalLoop=1;jettySize=auto;html=1;" edge="1" parent="1" source="kbTU3mEWm_k-nUe5y33P-12" target="kbTU3mEWm_k-nUe5y33P-14">
          <mxGeometry relative="1" as="geometry" />
        </mxCell>
        <mxCell id="kbTU3mEWm_k-nUe5y33P-45" value="" style="edgeStyle=orthogonalEdgeStyle;rounded=0;orthogonalLoop=1;jettySize=auto;html=1;" edge="1" parent="1" source="kbTU3mEWm_k-nUe5y33P-12" target="kbTU3mEWm_k-nUe5y33P-44">
          <mxGeometry relative="1" as="geometry" />
        </mxCell>
        <mxCell id="kbTU3mEWm_k-nUe5y33P-12" value="n==4" style="rhombus;whiteSpace=wrap;html=1;" vertex="1" parent="1">
          <mxGeometry x="230" y="720" width="80" height="80" as="geometry" />
        </mxCell>
        <mxCell id="kbTU3mEWm_k-nUe5y33P-17" value="" style="edgeStyle=orthogonalEdgeStyle;rounded=0;orthogonalLoop=1;jettySize=auto;html=1;" edge="1" parent="1" source="kbTU3mEWm_k-nUe5y33P-14" target="kbTU3mEWm_k-nUe5y33P-16">
          <mxGeometry relative="1" as="geometry" />
        </mxCell>
        <mxCell id="kbTU3mEWm_k-nUe5y33P-47" value="" style="edgeStyle=orthogonalEdgeStyle;rounded=0;orthogonalLoop=1;jettySize=auto;html=1;" edge="1" parent="1" source="kbTU3mEWm_k-nUe5y33P-14" target="kbTU3mEWm_k-nUe5y33P-46">
          <mxGeometry relative="1" as="geometry" />
        </mxCell>
        <mxCell id="kbTU3mEWm_k-nUe5y33P-14" value="n==5" style="rhombus;whiteSpace=wrap;html=1;" vertex="1" parent="1">
          <mxGeometry x="230" y="840" width="80" height="80" as="geometry" />
        </mxCell>
        <mxCell id="kbTU3mEWm_k-nUe5y33P-19" value="" style="edgeStyle=orthogonalEdgeStyle;rounded=0;orthogonalLoop=1;jettySize=auto;html=1;" edge="1" parent="1" source="kbTU3mEWm_k-nUe5y33P-16" target="kbTU3mEWm_k-nUe5y33P-18">
          <mxGeometry relative="1" as="geometry" />
        </mxCell>
        <mxCell id="kbTU3mEWm_k-nUe5y33P-49" value="" style="edgeStyle=orthogonalEdgeStyle;rounded=0;orthogonalLoop=1;jettySize=auto;html=1;" edge="1" parent="1" source="kbTU3mEWm_k-nUe5y33P-16" target="kbTU3mEWm_k-nUe5y33P-48">
          <mxGeometry relative="1" as="geometry" />
        </mxCell>
        <mxCell id="kbTU3mEWm_k-nUe5y33P-16" value="n==6" style="rhombus;whiteSpace=wrap;html=1;" vertex="1" parent="1">
          <mxGeometry x="230" y="960" width="80" height="80" as="geometry" />
        </mxCell>
        <mxCell id="kbTU3mEWm_k-nUe5y33P-51" value="" style="edgeStyle=orthogonalEdgeStyle;rounded=0;orthogonalLoop=1;jettySize=auto;html=1;" edge="1" parent="1" source="kbTU3mEWm_k-nUe5y33P-18" target="kbTU3mEWm_k-nUe5y33P-50">
          <mxGeometry relative="1" as="geometry" />
        </mxCell>
        <mxCell id="kbTU3mEWm_k-nUe5y33P-18" value="n==7" style="rhombus;whiteSpace=wrap;html=1;" vertex="1" parent="1">
          <mxGeometry x="231" y="1089" width="80" height="80" as="geometry" />
        </mxCell>
        <mxCell id="kbTU3mEWm_k-nUe5y33P-22" value="SI" style="text;html=1;align=center;verticalAlign=middle;resizable=0;points=[];autosize=1;strokeColor=none;fillColor=none;" vertex="1" parent="1">
          <mxGeometry x="305" y="368" width="30" height="30" as="geometry" />
        </mxCell>
        <mxCell id="kbTU3mEWm_k-nUe5y33P-23" value="SI" style="text;html=1;align=center;verticalAlign=middle;resizable=0;points=[];autosize=1;strokeColor=none;fillColor=none;" vertex="1" parent="1">
          <mxGeometry x="300" y="480" width="30" height="30" as="geometry" />
        </mxCell>
        <mxCell id="kbTU3mEWm_k-nUe5y33P-24" value="SI" style="text;html=1;align=center;verticalAlign=middle;resizable=0;points=[];autosize=1;strokeColor=none;fillColor=none;" vertex="1" parent="1">
          <mxGeometry x="300" y="590" width="30" height="30" as="geometry" />
        </mxCell>
        <mxCell id="kbTU3mEWm_k-nUe5y33P-25" value="SI" style="text;html=1;align=center;verticalAlign=middle;resizable=0;points=[];autosize=1;strokeColor=none;fillColor=none;" vertex="1" parent="1">
          <mxGeometry x="300" y="720" width="30" height="30" as="geometry" />
        </mxCell>
        <mxCell id="kbTU3mEWm_k-nUe5y33P-27" value="SI" style="text;html=1;align=center;verticalAlign=middle;resizable=0;points=[];autosize=1;strokeColor=none;fillColor=none;" vertex="1" parent="1">
          <mxGeometry x="310" y="840" width="30" height="30" as="geometry" />
        </mxCell>
        <mxCell id="kbTU3mEWm_k-nUe5y33P-28" value="SI" style="text;html=1;align=center;verticalAlign=middle;resizable=0;points=[];autosize=1;strokeColor=none;fillColor=none;" vertex="1" parent="1">
          <mxGeometry x="305" y="960" width="30" height="30" as="geometry" />
        </mxCell>
        <mxCell id="kbTU3mEWm_k-nUe5y33P-29" value="SI" style="text;html=1;align=center;verticalAlign=middle;resizable=0;points=[];autosize=1;strokeColor=none;fillColor=none;" vertex="1" parent="1">
          <mxGeometry x="305" y="1089" width="30" height="30" as="geometry" />
        </mxCell>
        <mxCell id="kbTU3mEWm_k-nUe5y33P-30" value="NO" style="text;html=1;align=center;verticalAlign=middle;resizable=0;points=[];autosize=1;strokeColor=none;fillColor=none;" vertex="1" parent="1">
          <mxGeometry x="270" y="438" width="40" height="30" as="geometry" />
        </mxCell>
        <mxCell id="kbTU3mEWm_k-nUe5y33P-31" value="NO" style="text;html=1;align=center;verticalAlign=middle;resizable=0;points=[];autosize=1;strokeColor=none;fillColor=none;" vertex="1" parent="1">
          <mxGeometry x="271" y="555" width="40" height="30" as="geometry" />
        </mxCell>
        <mxCell id="kbTU3mEWm_k-nUe5y33P-32" value="NO" style="text;html=1;align=center;verticalAlign=middle;resizable=0;points=[];autosize=1;strokeColor=none;fillColor=none;" vertex="1" parent="1">
          <mxGeometry x="271" y="680" width="40" height="30" as="geometry" />
        </mxCell>
        <mxCell id="kbTU3mEWm_k-nUe5y33P-33" value="NO" style="text;html=1;align=center;verticalAlign=middle;resizable=0;points=[];autosize=1;strokeColor=none;fillColor=none;" vertex="1" parent="1">
          <mxGeometry x="271" y="800" width="40" height="30" as="geometry" />
        </mxCell>
        <mxCell id="kbTU3mEWm_k-nUe5y33P-34" value="NO" style="text;html=1;align=center;verticalAlign=middle;resizable=0;points=[];autosize=1;strokeColor=none;fillColor=none;" vertex="1" parent="1">
          <mxGeometry x="271" y="920" width="40" height="30" as="geometry" />
        </mxCell>
        <mxCell id="kbTU3mEWm_k-nUe5y33P-35" value="NO" style="text;html=1;align=center;verticalAlign=middle;resizable=0;points=[];autosize=1;strokeColor=none;fillColor=none;" vertex="1" parent="1">
          <mxGeometry x="271" y="1040" width="40" height="30" as="geometry" />
        </mxCell>
        <mxCell id="kbTU3mEWm_k-nUe5y33P-36" value="NO" style="text;html=1;align=center;verticalAlign=middle;resizable=0;points=[];autosize=1;strokeColor=none;fillColor=none;" vertex="1" parent="1">
          <mxGeometry x="280" y="1160" width="40" height="30" as="geometry" />
        </mxCell>
        <mxCell id="kbTU3mEWm_k-nUe5y33P-52" style="edgeStyle=orthogonalEdgeStyle;rounded=0;orthogonalLoop=1;jettySize=auto;html=1;" edge="1" parent="1">
          <mxGeometry relative="1" as="geometry">
            <mxPoint x="270" y="1280" as="targetPoint" />
            <mxPoint x="590" y="410" as="sourcePoint" />
            <Array as="points">
              <mxPoint x="591" y="480" />
              <mxPoint x="591" y="1240" />
            </Array>
          </mxGeometry>
        </mxCell>
        <mxCell id="kbTU3mEWm_k-nUe5y33P-37" value="espacio1 =&quot; &quot;" style="whiteSpace=wrap;html=1;" vertex="1" parent="1">
          <mxGeometry x="340" y="390" width="120" height="40" as="geometry" />
        </mxCell>
        <mxCell id="kbTU3mEWm_k-nUe5y33P-39" value="espacio1= &quot;&amp;nbsp;&amp;nbsp;&quot;" style="whiteSpace=wrap;html=1;" vertex="1" parent="1">
          <mxGeometry x="340" y="500" width="120" height="40" as="geometry" />
        </mxCell>
        <mxCell id="kbTU3mEWm_k-nUe5y33P-42" value="espacio1=&quot;&amp;nbsp; &amp;nbsp; &amp;nbsp;&quot;" style="whiteSpace=wrap;html=1;" vertex="1" parent="1">
          <mxGeometry x="340" y="620" width="120" height="40" as="geometry" />
        </mxCell>
        <mxCell id="kbTU3mEWm_k-nUe5y33P-44" value="espacio1=&quot;&amp;nbsp; &amp;nbsp; &amp;nbsp; &amp;nbsp;&amp;nbsp;&quot;" style="whiteSpace=wrap;html=1;" vertex="1" parent="1">
          <mxGeometry x="335" y="740" width="120" height="40" as="geometry" />
        </mxCell>
        <mxCell id="kbTU3mEWm_k-nUe5y33P-46" value="espacio1=&quot;&amp;nbsp; &amp;nbsp; &amp;nbsp; &amp;nbsp; &amp;nbsp; &amp;nbsp;&quot;" style="whiteSpace=wrap;html=1;" vertex="1" parent="1">
          <mxGeometry x="340" y="860" width="120" height="40" as="geometry" />
        </mxCell>
        <mxCell id="kbTU3mEWm_k-nUe5y33P-48" value="espacio1=&quot;&amp;nbsp; &amp;nbsp; &amp;nbsp; &amp;nbsp; &amp;nbsp; &amp;nbsp; &amp;nbsp;&amp;nbsp;&quot;" style="whiteSpace=wrap;html=1;" vertex="1" parent="1">
          <mxGeometry x="340" y="980" width="130" height="40" as="geometry" />
        </mxCell>
        <mxCell id="kbTU3mEWm_k-nUe5y33P-50" value="espacio1=&quot;&amp;nbsp; &amp;nbsp; &amp;nbsp; &amp;nbsp; &amp;nbsp; &amp;nbsp; &amp;nbsp; &amp;nbsp; &amp;nbsp;&quot;" style="whiteSpace=wrap;html=1;" vertex="1" parent="1">
          <mxGeometry x="340" y="1108.5" width="150" height="41" as="geometry" />
        </mxCell>
        <mxCell id="kbTU3mEWm_k-nUe5y33P-53" value="" style="endArrow=none;html=1;rounded=0;" edge="1" parent="1">
          <mxGeometry width="50" height="50" relative="1" as="geometry">
            <mxPoint x="270" y="1240" as="sourcePoint" />
            <mxPoint x="271" y="1169" as="targetPoint" />
          </mxGeometry>
        </mxCell>
        <mxCell id="kbTU3mEWm_k-nUe5y33P-54" value="" style="endArrow=none;html=1;rounded=0;exitX=1;exitY=0.5;exitDx=0;exitDy=0;" edge="1" parent="1" source="kbTU3mEWm_k-nUe5y33P-37">
          <mxGeometry width="50" height="50" relative="1" as="geometry">
            <mxPoint x="460" y="450" as="sourcePoint" />
            <mxPoint x="590" y="410" as="targetPoint" />
          </mxGeometry>
        </mxCell>
        <mxCell id="kbTU3mEWm_k-nUe5y33P-56" value="" style="endArrow=none;html=1;rounded=0;exitX=1;exitY=0.5;exitDx=0;exitDy=0;" edge="1" parent="1" source="kbTU3mEWm_k-nUe5y33P-39">
          <mxGeometry width="50" height="50" relative="1" as="geometry">
            <mxPoint x="550" y="610" as="sourcePoint" />
            <mxPoint x="590" y="520" as="targetPoint" />
          </mxGeometry>
        </mxCell>
        <mxCell id="kbTU3mEWm_k-nUe5y33P-57" value="" style="endArrow=none;html=1;rounded=0;" edge="1" parent="1">
          <mxGeometry width="50" height="50" relative="1" as="geometry">
            <mxPoint x="460" y="640" as="sourcePoint" />
            <mxPoint x="590" y="640" as="targetPoint" />
          </mxGeometry>
        </mxCell>
        <mxCell id="kbTU3mEWm_k-nUe5y33P-58" value="" style="endArrow=none;html=1;rounded=0;exitX=1;exitY=0.5;exitDx=0;exitDy=0;" edge="1" parent="1" source="kbTU3mEWm_k-nUe5y33P-44">
          <mxGeometry width="50" height="50" relative="1" as="geometry">
            <mxPoint x="460" y="760" as="sourcePoint" />
            <mxPoint x="590" y="760" as="targetPoint" />
          </mxGeometry>
        </mxCell>
        <mxCell id="kbTU3mEWm_k-nUe5y33P-59" value="" style="endArrow=none;html=1;rounded=0;" edge="1" parent="1">
          <mxGeometry width="50" height="50" relative="1" as="geometry">
            <mxPoint x="460" y="880" as="sourcePoint" />
            <mxPoint x="590" y="880" as="targetPoint" />
          </mxGeometry>
        </mxCell>
        <mxCell id="kbTU3mEWm_k-nUe5y33P-60" value="" style="endArrow=none;html=1;rounded=0;" edge="1" parent="1">
          <mxGeometry width="50" height="50" relative="1" as="geometry">
            <mxPoint x="470" y="1000" as="sourcePoint" />
            <mxPoint x="590" y="1000" as="targetPoint" />
          </mxGeometry>
        </mxCell>
        <mxCell id="kbTU3mEWm_k-nUe5y33P-61" value="" style="endArrow=none;html=1;rounded=0;exitX=1;exitY=0.5;exitDx=0;exitDy=0;" edge="1" parent="1" source="kbTU3mEWm_k-nUe5y33P-50">
          <mxGeometry width="50" height="50" relative="1" as="geometry">
            <mxPoint x="550" y="1180" as="sourcePoint" />
            <mxPoint x="590" y="1130" as="targetPoint" />
          </mxGeometry>
        </mxCell>
        <mxCell id="kbTU3mEWm_k-nUe5y33P-65" value="" style="edgeStyle=orthogonalEdgeStyle;rounded=0;orthogonalLoop=1;jettySize=auto;html=1;" edge="1" parent="1" source="kbTU3mEWm_k-nUe5y33P-62" target="kbTU3mEWm_k-nUe5y33P-64">
          <mxGeometry relative="1" as="geometry" />
        </mxCell>
        <mxCell id="kbTU3mEWm_k-nUe5y33P-70" value="" style="edgeStyle=orthogonalEdgeStyle;rounded=0;orthogonalLoop=1;jettySize=auto;html=1;" edge="1" parent="1" source="kbTU3mEWm_k-nUe5y33P-62" target="kbTU3mEWm_k-nUe5y33P-69">
          <mxGeometry relative="1" as="geometry" />
        </mxCell>
        <mxCell id="kbTU3mEWm_k-nUe5y33P-62" value="i&amp;lt;=k" style="rhombus;whiteSpace=wrap;html=1;" vertex="1" parent="1">
          <mxGeometry x="202.5" y="1280" width="135" height="80" as="geometry" />
        </mxCell>
        <mxCell id="kbTU3mEWm_k-nUe5y33P-63" value="NO" style="text;html=1;align=center;verticalAlign=middle;resizable=0;points=[];autosize=1;strokeColor=none;fillColor=none;" vertex="1" parent="1">
          <mxGeometry x="310" y="1278" width="40" height="30" as="geometry" />
        </mxCell>
        <mxCell id="kbTU3mEWm_k-nUe5y33P-67" value="" style="edgeStyle=orthogonalEdgeStyle;rounded=0;orthogonalLoop=1;jettySize=auto;html=1;" edge="1" parent="1" source="kbTU3mEWm_k-nUe5y33P-64" target="kbTU3mEWm_k-nUe5y33P-66">
          <mxGeometry relative="1" as="geometry" />
        </mxCell>
        <mxCell id="kbTU3mEWm_k-nUe5y33P-64" value="espacio1, &quot; &quot;" style="shape=parallelogram;perimeter=parallelogramPerimeter;whiteSpace=wrap;html=1;fixedSize=1;" vertex="1" parent="1">
          <mxGeometry x="364" y="1290" width="120" height="60" as="geometry" />
        </mxCell>
        <mxCell id="kbTU3mEWm_k-nUe5y33P-66" value="FIN" style="ellipse;whiteSpace=wrap;html=1;" vertex="1" parent="1">
          <mxGeometry x="510" y="1280" width="80" height="80" as="geometry" />
        </mxCell>
        <mxCell id="kbTU3mEWm_k-nUe5y33P-68" value="SI" style="text;html=1;align=center;verticalAlign=middle;resizable=0;points=[];autosize=1;strokeColor=none;fillColor=none;" vertex="1" parent="1">
          <mxGeometry x="290" y="1360" width="30" height="30" as="geometry" />
        </mxCell>
        <mxCell id="kbTU3mEWm_k-nUe5y33P-73" value="" style="edgeStyle=orthogonalEdgeStyle;rounded=0;orthogonalLoop=1;jettySize=auto;html=1;exitX=0;exitY=0.5;exitDx=0;exitDy=0;" edge="1" parent="1" source="kbTU3mEWm_k-nUe5y33P-69" target="kbTU3mEWm_k-nUe5y33P-72">
          <mxGeometry relative="1" as="geometry">
            <mxPoint x="202.5" y="1467.5" as="sourcePoint" />
          </mxGeometry>
        </mxCell>
        <mxCell id="kbTU3mEWm_k-nUe5y33P-98" style="edgeStyle=orthogonalEdgeStyle;rounded=0;orthogonalLoop=1;jettySize=auto;html=1;entryX=0.5;entryY=0;entryDx=0;entryDy=0;" edge="1" parent="1" source="kbTU3mEWm_k-nUe5y33P-69" target="kbTU3mEWm_k-nUe5y33P-93">
          <mxGeometry relative="1" as="geometry" />
        </mxCell>
        <mxCell id="kbTU3mEWm_k-nUe5y33P-69" value="r&amp;lt;=14" style="rhombus;whiteSpace=wrap;html=1;" vertex="1" parent="1">
          <mxGeometry x="202.5" y="1410" width="135" height="80" as="geometry" />
        </mxCell>
        <mxCell id="kbTU3mEWm_k-nUe5y33P-71" value="SI" style="text;html=1;align=center;verticalAlign=middle;resizable=0;points=[];autosize=1;strokeColor=none;fillColor=none;" vertex="1" parent="1">
          <mxGeometry x="180" y="1452.5" width="30" height="30" as="geometry" />
        </mxCell>
        <mxCell id="kbTU3mEWm_k-nUe5y33P-75" value="" style="edgeStyle=orthogonalEdgeStyle;rounded=0;orthogonalLoop=1;jettySize=auto;html=1;" edge="1" parent="1" source="kbTU3mEWm_k-nUe5y33P-72" target="kbTU3mEWm_k-nUe5y33P-74">
          <mxGeometry relative="1" as="geometry" />
        </mxCell>
        <mxCell id="kbTU3mEWm_k-nUe5y33P-72" value="espacio1.size()== s+(s*r) + r" style="rhombus;whiteSpace=wrap;html=1;" vertex="1" parent="1">
          <mxGeometry x="-20" y="1402.5" width="180" height="95" as="geometry" />
        </mxCell>
        <mxCell id="kbTU3mEWm_k-nUe5y33P-94" style="edgeStyle=orthogonalEdgeStyle;rounded=0;orthogonalLoop=1;jettySize=auto;html=1;entryX=0;entryY=0.5;entryDx=0;entryDy=0;" edge="1" parent="1" source="kbTU3mEWm_k-nUe5y33P-74" target="kbTU3mEWm_k-nUe5y33P-93">
          <mxGeometry relative="1" as="geometry">
            <mxPoint x="-160" y="1590" as="targetPoint" />
            <Array as="points">
              <mxPoint x="-160" y="1580" />
            </Array>
          </mxGeometry>
        </mxCell>
        <mxCell id="kbTU3mEWm_k-nUe5y33P-74" value="espacio1= espacio1 + &#39;\n&#39;" style="whiteSpace=wrap;html=1;" vertex="1" parent="1">
          <mxGeometry x="-230" y="1420" width="140" height="60" as="geometry" />
        </mxCell>
        <mxCell id="kbTU3mEWm_k-nUe5y33P-76" value="SI" style="text;html=1;align=center;verticalAlign=middle;resizable=0;points=[];autosize=1;strokeColor=none;fillColor=none;" vertex="1" parent="1">
          <mxGeometry x="-70" y="1420" width="30" height="30" as="geometry" />
        </mxCell>
        <mxCell id="kbTU3mEWm_k-nUe5y33P-83" value="NO" style="text;html=1;align=center;verticalAlign=middle;resizable=0;points=[];autosize=1;strokeColor=none;fillColor=none;" vertex="1" parent="1">
          <mxGeometry x="280" y="1490" width="40" height="30" as="geometry" />
        </mxCell>
        <mxCell id="kbTU3mEWm_k-nUe5y33P-101" value="" style="edgeStyle=orthogonalEdgeStyle;rounded=0;orthogonalLoop=1;jettySize=auto;html=1;" edge="1" parent="1" source="kbTU3mEWm_k-nUe5y33P-84" target="kbTU3mEWm_k-nUe5y33P-100">
          <mxGeometry relative="1" as="geometry" />
        </mxCell>
        <mxCell id="kbTU3mEWm_k-nUe5y33P-103" value="" style="edgeStyle=orthogonalEdgeStyle;rounded=0;orthogonalLoop=1;jettySize=auto;html=1;" edge="1" parent="1" source="kbTU3mEWm_k-nUe5y33P-84" target="kbTU3mEWm_k-nUe5y33P-102">
          <mxGeometry relative="1" as="geometry" />
        </mxCell>
        <mxCell id="kbTU3mEWm_k-nUe5y33P-84" value="n==1 and espacio1.size()==1" style="rhombus;whiteSpace=wrap;html=1;" vertex="1" parent="1">
          <mxGeometry x="196.25" y="1668" width="147.5" height="100" as="geometry" />
        </mxCell>
        <mxCell id="kbTU3mEWm_k-nUe5y33P-99" style="edgeStyle=orthogonalEdgeStyle;rounded=0;orthogonalLoop=1;jettySize=auto;html=1;entryX=0.5;entryY=0;entryDx=0;entryDy=0;" edge="1" parent="1" source="kbTU3mEWm_k-nUe5y33P-93" target="kbTU3mEWm_k-nUe5y33P-84">
          <mxGeometry relative="1" as="geometry" />
        </mxCell>
        <mxCell id="kbTU3mEWm_k-nUe5y33P-93" value="++r" style="whiteSpace=wrap;html=1;" vertex="1" parent="1">
          <mxGeometry x="230" y="1560" width="80" height="40" as="geometry" />
        </mxCell>
        <mxCell id="kbTU3mEWm_k-nUe5y33P-95" value="NO" style="text;html=1;align=center;verticalAlign=middle;resizable=0;points=[];autosize=1;strokeColor=none;fillColor=none;" vertex="1" parent="1">
          <mxGeometry x="80" y="1497.5" width="40" height="30" as="geometry" />
        </mxCell>
        <mxCell id="kbTU3mEWm_k-nUe5y33P-97" value="" style="endArrow=none;html=1;rounded=0;entryX=0.5;entryY=1;entryDx=0;entryDy=0;" edge="1" parent="1" target="kbTU3mEWm_k-nUe5y33P-72">
          <mxGeometry width="50" height="50" relative="1" as="geometry">
            <mxPoint x="70" y="1580" as="sourcePoint" />
            <mxPoint x="70" y="1500" as="targetPoint" />
          </mxGeometry>
        </mxCell>
        <mxCell id="kbTU3mEWm_k-nUe5y33P-126" style="edgeStyle=orthogonalEdgeStyle;rounded=0;orthogonalLoop=1;jettySize=auto;html=1;entryX=1;entryY=0.5;entryDx=0;entryDy=0;" edge="1" parent="1" source="kbTU3mEWm_k-nUe5y33P-100" target="vaoqyoB3mij0DtZmDiGH-2">
          <mxGeometry relative="1" as="geometry">
            <mxPoint x="340" y="2260" as="targetPoint" />
            <Array as="points">
              <mxPoint x="720" y="1718" />
              <mxPoint x="720" y="2260" />
            </Array>
          </mxGeometry>
        </mxCell>
        <mxCell id="kbTU3mEWm_k-nUe5y33P-100" value="espacio1=espacio1 + i" style="whiteSpace=wrap;html=1;" vertex="1" parent="1">
          <mxGeometry x="370" y="1688" width="140" height="60" as="geometry" />
        </mxCell>
        <mxCell id="kbTU3mEWm_k-nUe5y33P-107" value="" style="edgeStyle=orthogonalEdgeStyle;rounded=0;orthogonalLoop=1;jettySize=auto;html=1;" edge="1" parent="1" source="kbTU3mEWm_k-nUe5y33P-102" target="kbTU3mEWm_k-nUe5y33P-106">
          <mxGeometry relative="1" as="geometry" />
        </mxCell>
        <mxCell id="kbTU3mEWm_k-nUe5y33P-109" value="" style="edgeStyle=orthogonalEdgeStyle;rounded=0;orthogonalLoop=1;jettySize=auto;html=1;" edge="1" parent="1" source="kbTU3mEWm_k-nUe5y33P-102" target="kbTU3mEWm_k-nUe5y33P-108">
          <mxGeometry relative="1" as="geometry" />
        </mxCell>
        <UserObject label="i.size()==1 and&amp;nbsp;&lt;div&gt;espacio1 [espacio1.size()-1] !=&#39;\n&#39;&lt;/div&gt;" link="n==1 &amp;&amp; espacio1.size()==1" id="kbTU3mEWm_k-nUe5y33P-102">
          <mxCell style="rhombus;whiteSpace=wrap;html=1;" vertex="1" parent="1">
            <mxGeometry x="147.5" y="1800" width="245" height="90" as="geometry" />
          </mxCell>
        </UserObject>
        <mxCell id="kbTU3mEWm_k-nUe5y33P-104" value="SI" style="text;html=1;align=center;verticalAlign=middle;resizable=0;points=[];autosize=1;strokeColor=none;fillColor=none;" vertex="1" parent="1">
          <mxGeometry x="325" y="1678" width="30" height="30" as="geometry" />
        </mxCell>
        <mxCell id="kbTU3mEWm_k-nUe5y33P-105" value="NO" style="text;html=1;align=center;verticalAlign=middle;resizable=0;points=[];autosize=1;strokeColor=none;fillColor=none;" vertex="1" parent="1">
          <mxGeometry x="280" y="1758" width="40" height="30" as="geometry" />
        </mxCell>
        <mxCell id="kbTU3mEWm_k-nUe5y33P-106" value="_i = &quot;&amp;nbsp; &quot; + i&lt;div&gt;espacio1 = espacio1 + _i&lt;/div&gt;" style="whiteSpace=wrap;html=1;" vertex="1" parent="1">
          <mxGeometry x="430" y="1815" width="150" height="60" as="geometry" />
        </mxCell>
        <mxCell id="kbTU3mEWm_k-nUe5y33P-114" value="" style="edgeStyle=orthogonalEdgeStyle;rounded=0;orthogonalLoop=1;jettySize=auto;html=1;" edge="1" parent="1" source="kbTU3mEWm_k-nUe5y33P-108" target="kbTU3mEWm_k-nUe5y33P-113">
          <mxGeometry relative="1" as="geometry" />
        </mxCell>
        <mxCell id="kbTU3mEWm_k-nUe5y33P-116" value="" style="edgeStyle=orthogonalEdgeStyle;rounded=0;orthogonalLoop=1;jettySize=auto;html=1;" edge="1" parent="1" source="kbTU3mEWm_k-nUe5y33P-108" target="kbTU3mEWm_k-nUe5y33P-115">
          <mxGeometry relative="1" as="geometry" />
        </mxCell>
        <UserObject label="i.size()==1 and&amp;nbsp;&lt;div&gt;espacio1 [espacio1.size()-1] !=&#39;\n&#39;&lt;/div&gt;" link="n==1 &amp;&amp; espacio1.size()==1" id="kbTU3mEWm_k-nUe5y33P-108">
          <mxCell style="rhombus;whiteSpace=wrap;html=1;" vertex="1" parent="1">
            <mxGeometry x="143.75" y="1940" width="252.5" height="100" as="geometry" />
          </mxCell>
        </UserObject>
        <mxCell id="kbTU3mEWm_k-nUe5y33P-110" value="SI" style="text;html=1;align=center;verticalAlign=middle;resizable=0;points=[];autosize=1;strokeColor=none;fillColor=none;" vertex="1" parent="1">
          <mxGeometry x="385" y="1808" width="30" height="30" as="geometry" />
        </mxCell>
        <mxCell id="kbTU3mEWm_k-nUe5y33P-111" value="NO" style="text;html=1;align=center;verticalAlign=middle;resizable=0;points=[];autosize=1;strokeColor=none;fillColor=none;" vertex="1" parent="1">
          <mxGeometry x="270" y="1888" width="40" height="30" as="geometry" />
        </mxCell>
        <mxCell id="kbTU3mEWm_k-nUe5y33P-112" value="SI" style="text;html=1;align=center;verticalAlign=middle;resizable=0;points=[];autosize=1;strokeColor=none;fillColor=none;" vertex="1" parent="1">
          <mxGeometry x="385" y="1958" width="30" height="30" as="geometry" />
        </mxCell>
        <mxCell id="kbTU3mEWm_k-nUe5y33P-113" value="&lt;div&gt;_i = &quot; &quot; + i&lt;/div&gt;&lt;div&gt;&lt;span style=&quot;background-color: initial;&quot;&gt;espacio1 = espacio1 + _i&lt;/span&gt;&lt;/div&gt;" style="whiteSpace=wrap;html=1;" vertex="1" parent="1">
          <mxGeometry x="430" y="1960" width="150" height="60" as="geometry" />
        </mxCell>
        <mxCell id="kbTU3mEWm_k-nUe5y33P-119" value="" style="edgeStyle=orthogonalEdgeStyle;rounded=0;orthogonalLoop=1;jettySize=auto;html=1;" edge="1" parent="1" source="kbTU3mEWm_k-nUe5y33P-115" target="kbTU3mEWm_k-nUe5y33P-118">
          <mxGeometry relative="1" as="geometry" />
        </mxCell>
        <mxCell id="kbTU3mEWm_k-nUe5y33P-122" value="" style="edgeStyle=orthogonalEdgeStyle;rounded=0;orthogonalLoop=1;jettySize=auto;html=1;" edge="1" parent="1" source="kbTU3mEWm_k-nUe5y33P-115">
          <mxGeometry relative="1" as="geometry">
            <mxPoint x="270" y="2230" as="targetPoint" />
          </mxGeometry>
        </mxCell>
        <UserObject label="i.size()==2 and&amp;nbsp;&lt;div&gt;espacio1 [espacio1.size()-1]==&#39;\n&#39;&lt;/div&gt;" link="n==1 &amp;&amp; espacio1.size()==1" id="kbTU3mEWm_k-nUe5y33P-115">
          <mxCell style="rhombus;whiteSpace=wrap;html=1;" vertex="1" parent="1">
            <mxGeometry x="142.38" y="2080" width="255.25" height="100" as="geometry" />
          </mxCell>
        </UserObject>
        <mxCell id="kbTU3mEWm_k-nUe5y33P-117" value="NO" style="text;html=1;align=center;verticalAlign=middle;resizable=0;points=[];autosize=1;strokeColor=none;fillColor=none;" vertex="1" parent="1">
          <mxGeometry x="280" y="2040" width="40" height="30" as="geometry" />
        </mxCell>
        <mxCell id="kbTU3mEWm_k-nUe5y33P-118" value="espacio1 = espacio1 + i" style="whiteSpace=wrap;html=1;" vertex="1" parent="1">
          <mxGeometry x="430" y="2100" width="200" height="60" as="geometry" />
        </mxCell>
        <mxCell id="kbTU3mEWm_k-nUe5y33P-120" value="SI" style="text;html=1;align=center;verticalAlign=middle;resizable=0;points=[];autosize=1;strokeColor=none;fillColor=none;" vertex="1" parent="1">
          <mxGeometry x="375" y="2098" width="30" height="30" as="geometry" />
        </mxCell>
        <mxCell id="kbTU3mEWm_k-nUe5y33P-123" value="NO" style="text;html=1;align=center;verticalAlign=middle;resizable=0;points=[];autosize=1;strokeColor=none;fillColor=none;" vertex="1" parent="1">
          <mxGeometry x="274" y="2180" width="40" height="30" as="geometry" />
        </mxCell>
        <mxCell id="kbTU3mEWm_k-nUe5y33P-127" value="" style="endArrow=none;html=1;rounded=0;" edge="1" parent="1">
          <mxGeometry width="50" height="50" relative="1" as="geometry">
            <mxPoint x="580" y="1850" as="sourcePoint" />
            <mxPoint x="720" y="1850" as="targetPoint" />
          </mxGeometry>
        </mxCell>
        <mxCell id="kbTU3mEWm_k-nUe5y33P-128" value="" style="endArrow=none;html=1;rounded=0;" edge="1" parent="1">
          <mxGeometry width="50" height="50" relative="1" as="geometry">
            <mxPoint x="580" y="1990" as="sourcePoint" />
            <mxPoint x="720" y="1990" as="targetPoint" />
          </mxGeometry>
        </mxCell>
        <mxCell id="kbTU3mEWm_k-nUe5y33P-129" value="" style="endArrow=none;html=1;rounded=0;" edge="1" parent="1">
          <mxGeometry width="50" height="50" relative="1" as="geometry">
            <mxPoint x="630" y="2130" as="sourcePoint" />
            <mxPoint x="720" y="2130" as="targetPoint" />
          </mxGeometry>
        </mxCell>
        <mxCell id="vaoqyoB3mij0DtZmDiGH-3" style="edgeStyle=orthogonalEdgeStyle;rounded=0;orthogonalLoop=1;jettySize=auto;html=1;exitX=0;exitY=0.5;exitDx=0;exitDy=0;entryX=0;entryY=0.5;entryDx=0;entryDy=0;" edge="1" parent="1" source="vaoqyoB3mij0DtZmDiGH-2" target="kbTU3mEWm_k-nUe5y33P-62">
          <mxGeometry relative="1" as="geometry">
            <mxPoint x="-340" y="1310" as="targetPoint" />
            <Array as="points">
              <mxPoint x="-280" y="2260" />
              <mxPoint x="-280" y="1320" />
            </Array>
          </mxGeometry>
        </mxCell>
        <mxCell id="vaoqyoB3mij0DtZmDiGH-2" value="++i" style="whiteSpace=wrap;html=1;" vertex="1" parent="1">
          <mxGeometry x="210" y="2230" width="120" height="60" as="geometry" />
        </mxCell>
      </root>
    </mxGraphModel>
  </diagram>
</mxfile>
